<?xml version="1.0" standalone="no"?><!DOCTYPE svg PUBLIC "-//W3C//DTD SVG 1.1//EN" "http://www.w3.org/Graphics/SVG/1.1/DTD/svg11.dtd"><svg t="1722268993428" class="icon" viewBox="0 0 1024 1024" version="1.1" xmlns="http://www.w3.org/2000/svg" p-id="1440" xmlns:xlink="http://www.w3.org/1999/xlink" width="22" height="22"><path d="M511.3 98.3c-228 0-413.5 185.5-413.5 413.5 0 23.8 2.6 48.1 6.5 70.8 0 0.1 0.2 0.1 0.3 0.2 1.6 5.8 6.7 10.1 13 10.1 7.6 0 13.8-6.2 13.8-13.8 0-0.5-0.2-0.9-0.3-1.3l0.2-0.1c-3.7-21.4-6-43.3-6-65.8 0-213.1 172.8-385.9 385.9-385.9s385.9 172.8 385.9 385.9-172.6 385.9-385.8 385.9c-142.4 0-266.5-77.4-333.4-192.2 0-0.1-0.1-0.1-0.1-0.2l-0.6-0.9c-2.3-4.3-6.7-7.4-12-7.4-7.6 0-13.8 6.2-13.8 13.8 0 3 1.2 5.6 2.8 7.8l-0.2 0.1C225.7 842 358.8 925.2 511.3 925.2c228 0 413.5-185.5 413.5-413.5S739.3 98.3 511.3 98.3z" fill="#aaaaaa" p-id="1441"></path><path d="M432.1 672.1c-7.6 0-13.8-6.2-13.8-13.8V365.4c0-7.6 6.2-13.8 13.8-13.8 7.6 0 13.8 6.2 13.8 13.8v292.9c0 7.6-6.2 13.8-13.8 13.8zM590.6 672.1c-7.6 0-13.8-6.2-13.8-13.8V365.4c0-7.6 6.2-13.8 13.8-13.8 7.6 0 13.8 6.2 13.8 13.8v292.9c0 7.6-6.2 13.8-13.8 13.8z" fill="#aaaaaa" p-id="1442"></path></svg>